<svg width="28" height="28" viewBox="0 0 28 28" fill="none" xmlns="http://www.w3.org/2000/svg">
<path d="M14 1.09375C11.5064 1.09722 9.11588 2.08935 7.35262 3.85261C5.58937 5.61588 4.59721 8.00638 4.59375 10.5C4.59375 15.505 13.125 26.2063 13.4881 26.6613C13.5496 26.7379 13.6276 26.7998 13.7162 26.8422C13.8047 26.8848 13.9017 26.9068 14 26.9068C14.0983 26.9068 14.1953 26.8848 14.2838 26.8422C14.3724 26.7998 14.4504 26.7379 14.5119 26.6613C14.875 26.2063 23.4062 15.505 23.4062 10.5C23.4028 8.00638 22.4106 5.61588 20.6474 3.85261C18.8841 2.08935 16.4936 1.09722 14 1.09375Z" fill="#F0454E"/>
<path d="M14 16.0956C17.0904 16.0956 19.5956 13.5904 19.5956 10.5C19.5956 7.40959 17.0904 4.90437 14 4.90437C10.9096 4.90437 8.40436 7.40959 8.40436 10.5C8.40436 13.5904 10.9096 16.0956 14 16.0956Z" fill="#E6E6E6"/>
</svg>
