<svg width="26" height="26" viewBox="0 0 26 26" fill="none" xmlns="http://www.w3.org/2000/svg">
<path d="M26 20.5637C26 20.9182 25.9386 21.2727 25.8158 21.8636C25.6918 22.3364 25.563 22.8091 25.4272 23.0455C25.1686 23.7545 24.4174 24.3454 23.175 25.0545C22.0176 25.6454 20.872 26 19.7395 26H18.7616C18.4533 25.8818 18.1026 25.7635 17.7081 25.7635C17.3148 25.6454 17.0196 25.5273 16.8223 25.4091C16.6381 25.4091 16.2992 25.2909 15.8067 25.0545C15.3142 24.8181 15.013 24.8182 14.902 24.7C13.695 24.3455 12.6179 23.7545 11.6708 23.1636C10.0946 22.2182 8.46349 20.9181 6.77689 19.2635C5.10268 17.4908 3.77936 15.8363 2.8068 14.3C2.21593 13.3545 1.70503 12.2909 1.2742 11.1091C1.23723 10.9909 1.12645 10.6363 0.94174 10.1636C0.757147 9.69088 0.627827 9.33631 0.554013 9.09994C0.492364 8.98176 0.406269 8.62727 0.295489 8.27273C0.18471 7.91818 0.104638 7.56361 0.0553895 7.20906C0.0184238 6.85452 0 6.61809 0 6.26355C0 5.08173 0.313913 3.90003 0.94174 2.83639C1.6311 1.53639 2.28361 0.827302 2.89915 0.472756C3.20692 0.354574 3.62547 0.236335 4.1548 0.118153C4.69642 -2.88547e-05 5.13351 0 5.46585 0H5.85369C6.07525 0.118182 6.40144 0.590851 6.8324 1.41812C6.96774 1.65449 7.15245 2.00909 7.38629 2.36364C7.62025 2.83636 7.83567 3.19091 8.03266 3.54545C8.22953 3.9 8.42039 4.25457 8.6051 4.60912C8.64194 4.60912 8.74658 4.72719 8.91901 5.08173C9.1036 5.3181 9.23906 5.55446 9.32528 5.67264C9.41137 5.909 9.45448 6.02719 9.45448 6.26355C9.45448 6.49991 9.27603 6.73633 8.91901 7.20906C8.57427 7.56361 8.19269 7.91821 7.77414 8.15457C7.36787 8.50912 6.98616 8.7454 6.62926 9.09994C6.28452 9.45449 6.11221 9.80909 6.11221 10.0455C6.11221 10.1636 6.14292 10.2817 6.20445 10.3999C6.2661 10.6363 6.31535 10.7545 6.3522 10.7545C6.40144 10.8727 6.48766 10.9909 6.61072 11.2273C6.74618 11.4636 6.82 11.5817 6.8324 11.5817C7.768 13.2363 8.83894 14.7727 10.0453 15.9545C11.2515 17.1364 12.6983 18.1999 14.3847 19.1454C14.4095 19.1454 14.5265 19.2637 14.7355 19.3818C14.9445 19.5 15.0922 19.6182 15.1784 19.6182C15.2646 19.6182 15.3886 19.7363 15.548 19.7363C15.7205 19.8545 15.8622 19.8545 15.9732 19.8545C16.194 19.8545 16.4775 19.7364 16.8223 19.3818C17.1672 19.0273 17.4932 18.6728 17.8014 18.2C18.1085 17.8455 18.4474 17.3728 18.8171 17.0182C19.1856 16.6637 19.4938 16.5455 19.7395 16.5455C19.9119 16.5455 20.0843 16.5454 20.2567 16.6636C20.4422 16.7818 20.663 16.9 20.9216 17.0182C21.1803 17.2546 21.3338 17.3727 21.3834 17.3727C21.6917 17.609 22.0176 17.7272 22.3625 17.9636C22.7191 18.1999 23.1124 18.3181 23.5435 18.5545C23.9746 18.7909 24.3076 19.0272 24.5415 19.1454C25.4024 19.6181 25.8701 19.9727 25.9445 20.0909C25.9811 20.2091 26 20.3273 26 20.5637Z" fill="#F0454E"/>
<path d="M0.258406 4.43182C0.0868044 5.03171 0 5.64839 0 6.24142C0 6.5747 0.0368476 6.88126 0.0738133 7.20177C0.123062 7.50999 0.184474 7.87777 0.295253 8.27273C0.406032 8.66711 0.49201 8.96161 0.553659 9.1591C0.627472 9.34393 0.774863 9.69978 0.959573 10.1932C1.14428 10.686 1.25483 10.9685 1.29179 11.0796C1.72263 12.2886 2.21405 13.3794 2.80491 14.3296C3.77747 15.9085 5.11662 17.5146 6.79082 19.2046C8.47731 20.8816 10.0868 22.2182 11.6625 23.1932C12.6109 23.7853 13.7033 24.3124 14.9103 24.7449C15.0213 24.7816 15.3036 24.8915 15.796 25.077C16.2885 25.2614 16.6452 25.3725 16.8294 25.4457C17.0267 25.5072 17.3207 25.5935 17.7152 25.7046C18.1097 25.8156 18.4403 25.9137 18.7486 25.9634C19.0686 26 19.4123 26 19.7454 26C20.8779 26 22.02 25.7057 23.1774 25.077C24.421 24.3856 25.1697 23.7356 25.4284 23.1187C25.5642 22.8115 25.674 22.3943 25.798 21.8636C25.9209 21.3212 25.9823 20.8662 25.9823 20.5341C25.9823 20.3616 25.9823 20.2138 25.9457 20.1276C25.902 19.9964 25.6776 19.8167 25.3552 19.6111C25.0564 20.1949 24.3478 20.8071 23.1774 21.4571C22.02 22.0858 20.8779 22.4179 19.7454 22.4179C19.4123 22.4179 19.0686 22.3813 18.7486 22.3435C18.4403 22.2938 18.1097 22.2336 17.7152 22.1225C17.3207 22.0114 17.0267 21.9251 16.8294 21.8636C16.6452 21.7892 16.2885 21.6426 15.796 21.4571C15.3036 21.2727 15.0213 21.1616 14.9103 21.125C13.7033 20.6936 12.6109 20.2032 11.6625 19.6111C10.0868 18.6361 8.47731 17.2995 6.79082 15.6225C5.11662 13.9325 3.77747 12.2886 2.80491 10.7096C2.21405 9.76041 1.72263 8.70599 1.29179 7.49722C1.25483 7.38613 1.14428 7.06716 0.959573 6.57387C0.774863 6.08046 0.627472 5.76161 0.553659 5.57677C0.49201 5.37917 0.406032 5.08466 0.295253 4.69041C0.268799 4.59633 0.281199 4.52105 0.258406 4.43182Z" fill="#D5222B"/>
</svg>
